<svg width="1200" height="1200" xmlns="http://www.w3.org/2000/svg" xmlns:xlink="http://www.w3.org/1999/xlink" version="1.1"><g transform="scale(13.499996137620123) translate(-5.55553807152642, -5.555534256829156)">                        <g fill="#111111"><title xmlns="http://www.w3.org/2000/svg"/><path xmlns="http://www.w3.org/2000/svg" d="M89.88,46.91c-2.95.32-5.9.64-8.86.94q4.2-2.45,8.33-5.06c-.12-.65-.25-1.29-.4-1.93-2.48,2.23-5,4.42-7.54,6.54q3.7-3.75,7.26-7.67c-.17-.65-.36-1.28-.56-1.91q-3.23,4.71-6.66,9.25Q84.74,42,87.76,36.78c-.22-.65-.47-1.29-.73-1.93-1.9,4.32-3.91,8.57-6,12.71q2.34-8.23,4.13-16.71c-.38-.69-.78-1.37-1.19-2q-1.11,8.9-2.82,17.64,1.36-9.35,2-18.84c-.5-.73-1-1.44-1.55-2.13.06,6.94-.16,13.88-.66,20.77.21-7.31.11-14.65-.31-22-.65-.77-1.33-1.52-2-2.24,1.11,8.07,1.83,16.2,2.17,24.32a258.63,258.63,0,0,0-3.58-25.7q-1.34-1.23-2.76-2.34a253.46,253.46,0,0,1,6.11,27.81,249.83,249.83,0,0,0-7.7-29,36.51,36.51,0,0,0-3.78-2.33A245.2,245.2,0,0,1,80.73,47.58,233.2,233.2,0,0,0,57.24,10.65,40.2,40.2,0,0,0,50,10h0A228.16,228.16,0,0,1,80.32,47.14,227.21,227.21,0,0,0,44.7,10.35a39.55,39.55,0,0,0-8.92,2.25,232.89,232.89,0,0,1,44.4,34.68A242.42,242.42,0,0,0,34.47,16.54c-1.15-.6-2.31-1.18-3.46-1.75A40.13,40.13,0,0,0,22.48,21q5.36,1.76,10.66,3.73A282.22,282.22,0,0,1,80.32,47.62,334,334,0,0,0,17.8,26.27a39.82,39.82,0,0,0-5.25,9.64A580.41,580.41,0,0,1,80.3,47.81c-23-2.46-46.35-4.29-69.57-5.47A40.28,40.28,0,0,0,10,50c0,1.07,0,2.14.13,3.19C33.69,52.11,57.33,50.36,80.7,48A282.92,282.92,0,0,1,32.92,70.22q-7.08,2.52-14.26,4.63a39.66,39.66,0,0,0,7.56,7.31q4-1.78,8-3.75a240,240,0,0,0,46.13-30A227.88,227.88,0,0,1,35.19,83.6c-1.15.68-2.3,1.34-3.46,2a39.83,39.83,0,0,0,8.76,3.26A221.18,221.18,0,0,0,80.28,48.72a222.19,222.19,0,0,1-34.71,41A40.41,40.41,0,0,0,50,90c1.1,0,2.19,0,3.26-.13A227.23,227.23,0,0,0,80.73,48.25a240.44,240.44,0,0,1-14.6,38.36,37.8,37.8,0,0,0,4.47-2.32,245.74,245.74,0,0,0,10-34.94A250,250,0,0,1,73,82.75a40.91,40.91,0,0,0,3.29-2.57,256.94,256.94,0,0,0,4.5-30.63,256.27,256.27,0,0,1-2.88,29.13c.86-.83,1.68-1.71,2.46-2.62A257,257,0,0,0,81,49.45c.63,8.31.85,16.68.67,25,.65-.84,1.27-1.7,1.85-2.58C83,64.46,82.25,57,81.17,49.68c1.31,6.93,2.33,14,3.07,21q.75-1.23,1.41-2.52Q83.72,58.06,81,48.24c2.44,4.77,4.74,9.67,6.88,14.66.27-.78.51-1.58.73-2.38q-3.43-6-7.18-11.82Q85.31,53.8,89,59.14c.18-.76.33-1.53.47-2.3q-3.87-4.26-7.88-8.31,4.08,3.53,8,7.23c.1-.73.19-1.47.25-2.21q-4.19-2.76-8.44-5.36,4.29,2,8.54,4.06c0-.7.06-1.41.06-2.12Q85.71,49,81.42,48L90,49C90,48.27,89.93,47.59,89.88,46.91Z"/></g>        </g></svg>